<svg xmlns="http://www.w3.org/2000/svg" width="36" height="36" viewBox="0 0 36 36" fill="none">
    <path
        d="M32.2958 30.704L25.2547 23.6644C27.2955 21.2143 28.3131 18.0717 28.0959 14.8904C27.8787 11.7091 26.4434 8.734 24.0885 6.58401C21.7337 4.43401 18.6406 3.27465 15.4527 3.3471C12.2648 3.41955 9.22759 4.71824 6.97284 6.97299C4.71808 9.22774 3.4194 12.265 3.34695 15.4529C3.2745 18.6407 4.43386 21.7338 6.58386 24.0887C8.73385 26.4435 11.7089 27.8789 14.8902 28.0961C18.0715 28.3133 21.2141 27.2956 23.6642 25.2548L30.7039 32.2959C30.8084 32.4004 30.9325 32.4834 31.0691 32.5399C31.2056 32.5965 31.352 32.6256 31.4998 32.6256C31.6477 32.6256 31.794 32.5965 31.9306 32.5399C32.0672 32.4834 32.1912 32.4004 32.2958 32.2959C32.4003 32.1914 32.4832 32.0673 32.5398 31.9307C32.5963 31.7942 32.6255 31.6478 32.6255 31.5C32.6255 31.3522 32.5963 31.2058 32.5398 31.0692C32.4832 30.9327 32.4003 30.8086 32.2958 30.704ZM5.62483 15.75C5.62483 13.7474 6.21865 11.7899 7.3312 10.1248C8.44375 8.45979 10.0251 7.16204 11.8752 6.3957C13.7253 5.62937 15.7611 5.42886 17.7251 5.81953C19.6892 6.21021 21.4933 7.17452 22.9093 8.59053C24.3253 10.0065 25.2896 11.8106 25.6803 13.7747C26.071 15.7388 25.8705 17.7746 25.1041 19.6247C24.3378 21.4748 23.04 23.0561 21.375 24.1686C19.7099 25.2812 17.7524 25.875 15.7498 25.875C13.0654 25.872 10.4918 24.8043 8.59367 22.9062C6.6955 21.008 5.62781 18.4344 5.62483 15.75Z"
        fill="#707070" />
</svg>