<svg xmlns="http://www.w3.org/2000/svg" width="44" height="41" viewBox="0 0 44 41" fill="none">
  <path d="M35.3476 18.5376C35.2199 18.6547 35.0683 18.7477 34.9013 18.8111C34.7344 18.8746 34.5555 18.9072 34.3748 18.9072C34.1941 18.9072 34.0152 18.8746 33.8482 18.8111C33.6813 18.7477 33.5297 18.6547 33.402 18.5376L23.3748 9.34439V34.0312C23.3748 34.3655 23.2299 34.6861 22.9721 34.9225C22.7142 35.1588 22.3645 35.2916 21.9998 35.2916C21.6351 35.2916 21.2854 35.1588 21.0275 34.9225C20.7697 34.6861 20.6248 34.3655 20.6248 34.0312V9.34439L10.5976 18.5376C10.3396 18.7741 9.98966 18.9069 9.62479 18.9069C9.25991 18.9069 8.90998 18.7741 8.65198 18.5376C8.39397 18.301 8.24902 17.9803 8.24902 17.6458C8.24902 17.3113 8.39397 16.9906 8.65198 16.7541L21.027 5.41031C21.1547 5.29312 21.3063 5.20016 21.4732 5.13673C21.6402 5.0733 21.8191 5.04065 21.9998 5.04065C22.1805 5.04065 22.3594 5.0733 22.5263 5.13673C22.6933 5.20016 22.8449 5.29312 22.9726 5.41031L35.3476 16.7541C35.4754 16.8711 35.5769 17.0101 35.6461 17.1631C35.7153 17.3162 35.7509 17.4802 35.7509 17.6458C35.7509 17.8114 35.7153 17.9755 35.6461 18.1285C35.5769 18.2815 35.4754 18.4205 35.3476 18.5376Z" fill="white"/>
</svg>