<svg xmlns="http://www.w3.org/2000/svg" width="150" height="150" viewBox="0 0 150 150" fill="none">
    <path
        d="M150 74.9953C150 95.2222 141.994 113.573 128.981 127.057C119.806 136.572 108.141 143.663 95.0336 147.284C88.6591 149.057 81.9356 150 74.9953 150C68.9602 150 63.0854 149.283 57.4558 147.935C43.33 144.55 30.76 137.175 21.019 127.057C7.99648 113.573 0 95.2128 0 74.9953C0 33.5796 33.5796 0 74.9953 0C116.42 0 150 33.5796 150 74.9953Z"
        fill="#DEDFE0" />
    <path
        d="M100.785 69.4884V52.9343C100.785 38.5822 89.1504 26.9486 74.7992 26.9486C60.4479 26.9486 48.8134 38.5831 48.8134 52.9343V69.4884C48.8134 74.126 47.1019 78.5994 44.0071 82.0526C40.9122 85.5058 39.2007 89.9803 39.2007 94.6179V117.126H110.397V94.6179C110.397 89.9803 108.685 85.5068 105.59 82.0526C102.495 78.5994 100.785 74.126 100.785 69.4884Z"
        fill="#555A5E" />
    <path
        d="M128.977 127.052C123.734 132.483 117.68 137.132 110.995 140.791C108.788 142.007 106.515 143.111 104.177 144.101C104.101 144.129 104.026 144.167 103.95 144.195C100.669 145.572 97.2647 146.722 93.7568 147.618C92.9836 147.825 92.2104 148.014 91.4277 148.184C91.39 148.193 91.3428 148.203 91.3051 148.212C90.0698 148.486 88.8345 148.731 87.5709 148.938C83.4784 149.636 79.2821 149.994 74.9915 149.994C70.7198 149.994 66.5236 149.636 62.4499 148.948C61.3466 148.759 60.2433 148.552 59.1589 148.306C58.3856 148.146 57.6124 147.967 56.8391 147.778C56.0187 147.571 55.1984 147.354 54.3874 147.118C51.7376 146.373 49.1538 145.477 46.6455 144.44C46.3721 144.336 46.108 144.223 45.8346 144.11C43.562 143.158 41.346 142.083 39.196 140.913C32.4348 137.236 26.3054 132.549 21.0059 127.052L22.2977 121.959C24.2497 114.312 30.2754 108.371 37.9607 106.532L39.196 106.24L44.7218 104.92L46.6455 104.458L50.8041 103.468C51.8885 103.204 52.9258 102.836 53.9065 102.364C53.9536 102.345 54.0008 102.317 54.0479 102.289C54.2365 102.195 54.4157 102.1 54.5948 102.006H54.6043C55.3964 101.582 56.1413 101.091 56.8391 100.535C57.4144 100.082 57.9519 99.592 58.4516 99.0639C58.6591 98.847 58.8571 98.6207 59.0457 98.3944C59.4229 97.9512 59.7718 97.4891 60.0924 97.0082C61.0731 95.5654 61.8087 93.9435 62.2613 92.199L63.2608 88.3139L63.5249 87.2672L63.5437 87.1823L64.8262 82.2317L65.2034 80.7512H84.7702L86.2319 86.4091L86.3639 86.9183L86.4393 87.2012L86.4487 87.2672L86.7222 88.3234L87.7218 92.199C88.165 93.9435 88.9099 95.5654 89.8906 97.0082C90.315 97.64 90.7865 98.2435 91.3051 98.7999C92.0406 99.6108 92.861 100.337 93.7568 100.978C94.2755 101.355 94.8224 101.695 95.3882 102.006C95.6711 102.166 95.954 102.308 96.2369 102.44C97.1704 102.874 98.1606 103.222 99.179 103.468L103.95 104.609L105.469 104.967L110.995 106.287L112.022 106.532C119.708 108.371 125.733 114.312 127.685 121.959L128.977 127.052Z"
        fill="#F4F4F4" />
    <path
        d="M86.4418 87.2069C84.7821 94.4961 80.2888 99.724 75.0025 99.724C69.7124 99.724 65.2106 94.4848 63.5547 87.1871L64.8315 82.2364L65.2143 80.7569H84.7793L86.2353 86.4138L86.3682 86.9212L86.4418 87.2069Z"
        fill="#D2D4DA" />
    <path
        d="M50.3879 59.4681C40.646 48.5371 47.146 75.2593 52.5351 72.1362C62.0083 66.6471 50.3879 59.4681 50.3879 59.4681Z"
        fill="#F4F4F4" />
    <path
        d="M99.6158 59.4681C109.358 48.5371 102.858 75.2593 97.4686 72.1362C87.9954 66.6471 99.6158 59.4681 99.6158 59.4681Z"
        fill="#F4F4F4" />
    <path
        d="M97.6699 51.5943C97.6699 52.4241 97.6228 53.2351 97.5285 54.046C97.4719 54.6024 97.2739 56.5544 96.9155 59.223C96.8024 60.0623 96.6798 60.9675 96.5384 61.9294C96.2083 64.1737 95.7934 66.6914 95.2936 69.2092C94.0866 75.2631 92.3987 81.2982 90.1921 83.5048C88.9756 84.7212 87.8724 85.8905 86.7974 86.9561C85.8921 87.8519 85.0057 88.6723 84.0816 89.389C84.0156 89.4361 83.959 89.4927 83.893 89.5398C83.7421 89.6624 83.5818 89.7756 83.4215 89.8888C82.3088 90.6903 81.13 91.3504 79.8004 91.803C78.4048 92.2839 76.8395 92.548 75.0007 92.548C73.2656 92.548 71.7662 92.3122 70.4366 91.869C69.0033 91.4164 67.7586 90.7374 66.5798 89.8982C66.4667 89.8227 66.363 89.7379 66.2592 89.653C66.2121 89.6247 66.1649 89.587 66.1178 89.5493C65.1276 88.7855 64.1752 87.9179 63.2134 86.9561C62.129 85.8905 61.0257 84.7212 59.8092 83.5048C57.6121 81.3076 55.9242 75.2725 54.7266 69.2186H54.7171C54.6888 69.0866 54.67 68.9546 54.6417 68.8225L54.6323 68.8131C54.5097 68.1436 54.3777 67.4835 54.2645 66.8234C54.2079 66.5028 54.1513 66.1822 54.0948 65.8616C53.859 64.4943 53.6516 63.1741 53.463 61.9294C53.3215 60.9675 53.1989 60.0623 53.0858 59.223C52.6614 56.0452 52.454 53.8763 52.454 53.8763C52.388 53.1313 52.3408 52.3675 52.3408 51.5943C52.3408 51.3963 52.3503 51.1982 52.3503 51.0002C52.3597 50.5759 52.388 50.161 52.4163 49.746C52.52 48.539 52.7086 47.3603 52.9915 46.2099C53.0198 46.0778 53.0481 45.9553 53.0858 45.8232C53.1046 45.7478 53.1235 45.6724 53.1424 45.5969C54.4248 40.9197 57.1689 36.8555 60.8559 33.904C60.8748 33.8945 60.8842 33.8757 60.9031 33.8662C64.4581 31.0279 68.8807 29.2362 73.7088 28.9722C74.1331 28.9439 74.5575 28.9344 74.9912 28.9344H75.0007C80.4322 28.9344 85.4112 30.8393 89.3151 34.0171C89.9186 34.498 90.4844 35.0167 91.0313 35.5636C93.9169 38.4491 96.0291 42.1079 97.0287 46.2099C97.3116 47.3509 97.5002 48.539 97.5945 49.746C97.6416 50.359 97.6699 50.9719 97.6699 51.5943Z"
        fill="#F4F4F4" />
    <path
        d="M78.6561 73.859C78.6561 75.4234 77.0625 76.6908 75.0917 76.6908C73.1303 76.6908 71.5366 75.4244 71.5366 73.859C71.5366 73.6714 71.5555 73.4837 71.6121 73.3093C71.9232 74.6087 73.366 75.5913 75.0917 75.5913C76.8267 75.5913 78.2695 74.6087 78.5807 73.3093C78.6373 73.4837 78.6561 73.6714 78.6561 73.859Z"
        fill="#DEDFE0" />
    <path
        d="M98.0957 50.9719C98.0957 51.8517 98.0476 52.7117 97.9514 53.5717C97.8939 54.1611 97.6921 56.2309 97.3272 59.0598C97.2121 59.95 96.6831 60.909 96.5388 61.9293C70.3796 61.6889 66.999 39.7844 66.999 39.7844C64.4247 59.1098 53.4634 61.9293 53.4634 61.9293C53.3192 60.91 52.7902 59.95 52.6751 59.0598C52.2432 55.6906 52.0311 53.3916 52.0311 53.3916C51.9641 52.6014 51.916 51.7923 51.916 50.9719C51.916 50.7616 51.9254 50.5523 51.9254 50.342C51.9349 49.8922 51.9641 49.4518 51.9924 49.0124C52.098 47.7328 52.2904 46.4833 52.5789 45.2631C52.6072 45.1235 52.6365 44.9934 52.6751 44.8529C52.694 44.7727 52.7138 44.6926 52.7326 44.6134C54.0396 39.6542 56.8346 35.3458 60.5905 32.216C60.6094 32.2056 60.6197 32.1858 60.6386 32.1764C64.2606 29.1674 68.7661 27.2672 73.6847 26.9872C74.1166 26.957 74.5494 26.9476 74.9908 26.9476H75.0002C80.5336 26.9476 85.6059 28.9674 89.5834 32.3367C90.1982 32.8469 90.7744 33.3966 91.3317 33.9766C94.271 37.0356 96.4228 40.915 97.4413 45.264C97.7298 46.4739 97.9212 47.7337 98.0174 49.0133C98.0665 49.6621 98.0957 50.3128 98.0957 50.9719Z"
        fill="#555A5E" />
    <path d="M44.7222 104.92V131.512H39.1963V106.24L44.7222 104.92Z" fill="#D2D4DA" />
    <path d="M110.995 106.287V131.512H105.469V104.967L110.995 106.287Z" fill="#D2D4DA" />
    <path
        d="M110.995 126.231V140.791C108.788 142.007 106.516 143.111 104.177 144.101C104.102 144.129 104.026 144.167 103.951 144.195C100.669 145.572 97.2651 146.722 93.7572 147.618C92.9839 147.825 92.2107 148.014 91.428 148.184C91.3903 148.193 91.3431 148.203 91.3054 148.212C90.0701 148.486 88.8348 148.731 87.5712 148.938C83.4787 149.636 79.2824 149.994 74.9918 149.994C70.7201 149.994 66.5239 149.636 62.4502 148.948C61.3469 148.759 60.2436 148.552 59.1592 148.306C58.386 148.146 57.6127 147.967 56.8395 147.778C56.0191 147.571 55.1987 147.354 54.3877 147.118C51.7379 146.373 49.1542 145.477 46.6458 144.44C46.3724 144.336 46.1083 144.223 45.8349 144.11C43.5623 143.158 41.3463 142.083 39.1963 140.913V126.231H57.0658C62.7991 126.231 67.9006 128.9 71.2011 133.068C73.219 135.604 76.9815 135.604 78.9901 133.068C82.2905 128.9 87.392 126.231 93.1254 126.231H110.995Z"
        fill="#6E7174" />
</svg>