<svg xmlns="http://www.w3.org/2000/svg" width="26" height="26" viewBox="0 0 26 26" fill="none">
    <mask id="mask0_53_290" style="mask-type:luminance" maskUnits="userSpaceOnUse" x="0" y="0"
        width="26" height="26">
        <path d="M26 0H0V26H26V0Z" fill="white" />
    </mask>
    <g mask="url(#mask0_53_290)">
        <path
            d="M25.48 13.2955C25.48 12.3737 25.3973 11.4873 25.2437 10.6364H13V15.665H19.9963C19.695 17.29 18.7792 18.6668 17.4023 19.5887V22.8505H21.6037C24.0618 20.5873 25.48 17.2545 25.48 13.2955Z"
            fill="#4285F4" />
        <path
            d="M13.0001 26C16.5101 26 19.4528 24.8358 21.6037 22.8505L17.4023 19.5886C16.2383 20.3686 14.7492 20.8295 13.0001 20.8295C9.61415 20.8295 6.7483 18.5427 5.72598 15.47H1.38281V18.8381C3.52196 23.0868 7.9183 26 13.0001 26Z"
            fill="#34A853" />
        <path
            d="M5.72585 15.47C5.46585 14.69 5.31817 13.8569 5.31817 13C5.31817 12.1432 5.46585 11.31 5.72585 10.53V7.16187H1.38268C0.502319 8.91686 0 10.9024 0 13C0 15.0977 0.502319 17.0832 1.38268 18.8382L5.72585 15.47Z"
            fill="#FBBC04" />
        <path
            d="M13.0001 5.17049C14.9087 5.17049 16.6223 5.82634 17.9696 7.11451L21.6983 3.38585C19.447 1.28817 16.5042 0 13.0001 0C7.9183 0 3.52196 2.91317 1.38281 7.16183L5.72598 10.53C6.7483 7.45732 9.61415 5.17049 13.0001 5.17049Z"
            fill="#E94235" />
    </g>
</svg>