<svg xmlns="http://www.w3.org/2000/svg" width="110" height="34" viewBox="0 0 110 34" fill="none">
    <path
        d="M18.8603 11.9781V6.70933C14.9169 6.71976 13.5008 6.74063 13.1752 6.7615C12.8496 6.78237 12.3276 6.83975 12.0123 6.88669C11.7022 6.93364 11.2112 7.03276 10.927 7.09536C10.6427 7.16317 10.1414 7.30924 9.8158 7.41357C9.49019 7.52312 8.97853 7.71091 8.67877 7.83611C8.37901 7.96652 7.86735 8.2117 7.54174 8.38385C7.21614 8.55599 6.69414 8.86899 6.37888 9.07765C6.06878 9.28109 5.57779 9.64103 5.29353 9.87578C5.00927 10.1053 4.47694 10.6061 4.10482 10.9921C3.7327 11.3729 3.28823 11.8789 3.11768 12.1085C2.94712 12.338 2.6577 12.7449 2.47681 13.0214C2.30108 13.2926 1.98582 13.856 1.78425 14.2733C1.58269 14.6854 1.32944 15.2749 1.22091 15.5775C1.11237 15.8748 0.957325 16.3808 0.874632 16.699C0.797108 17.012 0.683405 17.5389 0.626554 17.8728C0.569702 18.2014 0.492178 18.8222 0.461168 19.2551C0.42499 19.7246 0.409485 20.3663 0.430158 20.8723C0.450831 21.3261 0.497346 21.9521 0.538692 22.2547C0.57487 22.552 0.657563 23.0371 0.719583 23.3241C0.776434 23.611 0.895305 24.0909 0.983166 24.3934C1.07103 24.6908 1.23641 25.1759 1.35012 25.4628C1.46382 25.7498 1.70156 26.2662 1.87211 26.6105C2.04784 26.9548 2.34243 27.4712 2.53366 27.7581C2.71972 28.045 3.06082 28.5145 3.28823 28.8014C3.51564 29.0883 4.01696 29.6256 4.39941 30.0012C4.78187 30.3716 5.3142 30.8463 5.58296 31.0498C5.85171 31.2532 6.31169 31.5766 6.61145 31.7697C6.91121 31.9574 7.39703 32.2444 7.69679 32.3956C7.99655 32.5469 8.47204 32.7712 8.7563 32.8912C9.04055 33.0112 9.56255 33.199 9.91916 33.3137C10.2758 33.4285 10.834 33.5798 11.1596 33.6476C11.4852 33.7206 12.0227 33.8145 12.3483 33.8615C12.8289 33.9293 13.5266 33.9502 15.9041 33.9658L18.8603 33.9919V28.7232C15.3976 28.7232 14.1468 28.6971 13.8471 28.6658C13.5473 28.6345 13.0718 28.5615 12.7876 28.5041C12.5033 28.4467 12.0278 28.3163 11.7281 28.2172C11.4283 28.1181 10.9425 27.9198 10.6427 27.779C10.343 27.6329 9.8313 27.3356 9.5057 27.1165C9.0974 26.84 8.73562 26.5374 8.34283 26.141C8.0224 25.8176 7.63477 25.3585 7.45905 25.0977C7.28333 24.8369 7.04042 24.4143 6.91121 24.1587C6.782 23.8979 6.61662 23.5118 6.53909 23.298C6.46157 23.0789 6.3427 22.6563 6.27034 22.359C6.20315 22.0564 6.12046 21.4826 6.08428 21.0809C6.03777 20.5123 6.03777 20.1837 6.08428 19.6203C6.12046 19.2134 6.20315 18.6396 6.27034 18.3422C6.3427 18.0397 6.46157 17.6171 6.53392 17.4033C6.61145 17.1842 6.80784 16.7512 6.96806 16.4382C7.12311 16.12 7.42287 15.6401 7.62444 15.3688C7.83117 15.0923 8.18261 14.6907 8.41519 14.4663C8.64776 14.242 9.00437 13.9395 9.21111 13.783C9.41784 13.6317 9.72277 13.423 9.89332 13.3187C10.0639 13.2144 10.4257 13.0266 10.6944 12.8962C10.9632 12.7658 11.4283 12.578 11.7281 12.4788C12.0278 12.3745 12.5033 12.2493 12.7876 12.1919C13.0718 12.1345 13.5318 12.0615 13.8109 12.0302C14.0848 11.9989 15.3355 11.9781 16.5863 11.9781H18.8603Z"
        fill="#5C2D91" />
    <path
        d="M28.098 0H22.6713L22.6971 33.8815L28.098 33.9076L28.129 17.032C28.3099 16.2235 28.4236 15.8114 28.496 15.5975C28.5683 15.3836 28.7441 14.9715 28.8939 14.6846C29.0386 14.3977 29.2867 13.9856 29.4469 13.7717C29.602 13.5578 29.9431 13.1822 30.2015 12.9371C30.4599 12.6919 30.8527 12.3841 31.075 12.2485C31.3024 12.1076 31.6693 11.9198 31.8967 11.8207C32.1241 11.7216 32.4962 11.5912 32.7237 11.5338C32.9511 11.4712 33.3955 11.3982 33.7056 11.3669C34.1191 11.3251 34.4602 11.3251 34.9719 11.3721C35.3543 11.4034 35.8298 11.466 36.0314 11.5077C36.2329 11.5495 36.543 11.6329 36.7291 11.6903C36.9151 11.7529 37.2046 11.8624 37.3751 11.9407C37.5457 12.0189 37.8351 12.1859 38.0212 12.3111C38.2072 12.4363 38.4811 12.6606 38.6362 12.8014C38.7861 12.9475 39.0186 13.2083 39.1479 13.3805C39.2822 13.5526 39.4838 13.8812 39.6078 14.1108C39.7267 14.3403 39.8973 14.7524 39.9851 15.0237C40.073 15.2949 40.197 15.7801 40.2539 16.0931C40.3672 16.66 40.3676 16.7654 40.3932 25.2016L40.4244 33.8815H45.7995C45.7995 17.1572 45.7943 16.453 45.7064 15.754C45.6547 15.3367 45.5565 14.7055 45.4842 14.3455C45.4118 13.9856 45.2878 13.4483 45.1999 13.1457C45.1121 12.8432 44.9622 12.3893 44.8588 12.1285C44.7555 11.8677 44.5952 11.4973 44.497 11.2938C44.3937 11.0904 44.2335 10.7878 44.1301 10.6157C44.0267 10.4435 43.82 10.1253 43.6649 9.91145C43.5047 9.69757 43.1791 9.31155 42.9362 9.05594C42.6933 8.80554 42.3057 8.45082 42.0783 8.26824C41.8509 8.09087 41.4994 7.84048 41.303 7.7205C41.1015 7.5953 40.7087 7.38142 40.4244 7.24579C40.1402 7.10495 39.6285 6.9015 39.2874 6.78674C38.9463 6.67719 38.3984 6.52069 38.0728 6.44766C37.7472 6.37463 37.2097 6.28073 36.8841 6.23378C36.5585 6.18683 35.7885 6.13988 35.1786 6.11902C34.4499 6.09815 33.8865 6.10858 33.5506 6.15032C33.2663 6.18162 32.8012 6.25986 32.5169 6.31724C32.2327 6.37463 31.7572 6.50504 31.4574 6.60415C31.1577 6.70327 30.6357 6.92237 30.2945 7.08408C29.9534 7.25101 29.4986 7.50662 29.2867 7.64747C29.0748 7.78832 28.7182 8.04914 28.5011 8.2265L28.098 8.55515V0Z"
        fill="#5C2D91" />
    <path
        d="M64.2485 13.8781C64.0694 13.8582 63.8007 13.8449 63.5605 13.8472C63.3442 13.8494 63.1324 13.8538 63.0909 13.8582C63.0494 13.8626 62.9314 13.8759 62.8288 13.8892C62.7261 13.9024 62.5448 13.9312 62.4247 13.9555C62.3046 13.9798 62.084 14.0351 61.9333 14.0793C61.7825 14.1235 61.5335 14.212 61.3763 14.2739C61.2212 14.338 61.0181 14.4287 60.9285 14.4751C60.839 14.5193 60.6577 14.6233 60.5244 14.7029C60.3934 14.7825 60.1706 14.9328 60.033 15.039C59.8954 15.1451 59.6966 15.3131 59.5918 15.4104C59.487 15.5099 59.3144 15.6824 59.2118 15.7952C59.1069 15.9079 58.9409 16.1091 58.8426 16.244C58.7422 16.3767 58.5915 16.6066 58.5019 16.7526C58.4145 16.8985 58.2922 17.1262 58.2311 17.2611C58.1677 17.3938 58.0804 17.6039 58.0367 17.7255C57.9908 17.8471 57.9209 18.066 57.8794 18.2119C57.8379 18.3578 57.7811 18.6055 57.7527 18.7647C57.7243 18.9217 57.6872 19.1848 57.6741 19.3506C57.6566 19.5364 57.6523 19.7929 57.6588 20.0361C57.6675 20.2483 57.6938 20.5601 57.72 20.7326C57.744 20.9028 57.7986 21.1704 57.8379 21.3296C57.8772 21.4866 57.9559 21.7453 58.0126 21.9045C58.0694 22.0615 58.1852 22.3356 58.2704 22.5125C58.3577 22.6872 58.5216 22.9769 58.6373 23.1538C58.7553 23.3284 58.9278 23.5672 59.0239 23.6844C59.12 23.7994 59.3253 24.0183 59.4782 24.1709C59.6333 24.3234 59.8736 24.5335 60.0112 24.6374C60.1488 24.7436 60.3956 24.9094 60.5572 25.0089C60.7188 25.1062 60.9744 25.2433 61.1251 25.3118C61.2758 25.3804 61.5401 25.4843 61.7148 25.5418C61.8896 25.6015 62.1451 25.6744 62.2827 25.7054C62.4203 25.7363 62.6431 25.7784 62.7742 25.7983C62.9511 25.827 63.1608 25.8359 63.5714 25.8381C63.9995 25.8381 64.1895 25.8292 64.3904 25.7983C64.5346 25.7762 64.7421 25.7386 64.8491 25.7142C64.9583 25.6921 65.1593 25.6368 65.2969 25.597C65.4345 25.555 65.6616 25.4754 65.7992 25.4202C65.9368 25.3627 66.1727 25.2521 66.3235 25.1725C66.4742 25.0951 66.7188 24.947 66.8695 24.8453C67.0202 24.7436 67.219 24.5976 67.3107 24.5202C67.4024 24.4428 67.5444 24.319 67.6274 24.2438L67.7759 24.1068L69.5124 25.827C69.5014 19.4767 69.4971 19.187 69.4621 18.9747C69.4403 18.8465 69.3922 18.6121 69.3551 18.4551C69.318 18.2959 69.2459 18.0372 69.1913 17.8802C69.1389 17.721 69.0078 17.4115 68.9008 17.1948C68.7959 16.9759 68.6321 16.6818 68.5404 16.5425C68.4465 16.401 68.2958 16.1932 68.2062 16.0782C68.1145 15.961 67.9223 15.7465 67.7759 15.6006C67.6318 15.4546 67.4308 15.2667 67.3282 15.1849C67.2255 15.1009 67.0093 14.9439 66.8477 14.8355C66.686 14.7272 66.4305 14.5746 66.2798 14.4972C66.1291 14.4198 65.9063 14.3159 65.784 14.2651C65.6595 14.2164 65.4498 14.1412 65.3144 14.0992C65.1789 14.0594 64.9496 13.9997 64.8054 13.9688C64.6613 13.9378 64.4101 13.898 64.2485 13.8781Z"
        fill="white" />
    <path
        d="M65.2101 5.78367C64.7863 5.73672 64.1506 5.70542 63.5821 5.71064C63.0704 5.71585 62.5691 5.72628 62.4709 5.73672C62.3727 5.74715 62.0936 5.77845 61.8507 5.80975C61.6078 5.84105 61.1788 5.90886 60.8946 5.96624C60.6103 6.02363 60.0883 6.15404 59.7317 6.25837C59.3751 6.3627 58.7859 6.57137 58.4138 6.71743C58.0468 6.86871 57.5662 7.08259 57.3543 7.19214C57.1424 7.29647 56.7134 7.54165 56.3981 7.72944C56.088 7.91724 55.5609 8.27196 55.2353 8.52236C54.9097 8.77275 54.4393 9.16921 54.1913 9.39874C53.9432 9.63348 53.5349 10.0404 53.292 10.3064C53.0439 10.5725 52.6511 11.0472 52.4185 11.3654C52.1808 11.6784 51.8242 12.2209 51.6123 12.5652C51.4055 12.9095 51.1161 13.4468 50.9714 13.765C50.8215 14.078 50.6148 14.5736 50.5114 14.8605C50.4029 15.1474 50.2375 15.6638 50.1393 16.0081C50.0411 16.3524 49.9067 16.9367 49.8396 17.3122C49.7724 17.6826 49.6845 18.3034 49.6535 18.6946C49.6121 19.1328 49.6018 19.7379 49.6173 20.3118C49.638 20.8126 49.7 21.5481 49.762 21.955C49.8189 22.3567 49.9481 22.9879 50.0411 23.3634C50.1341 23.7338 50.3202 24.3442 50.4546 24.7198C50.589 25.0901 50.8629 25.737 51.0644 26.1543C51.2712 26.5664 51.6588 27.2498 51.9327 27.6671C52.2118 28.0792 52.6201 28.6426 52.8475 28.9191C53.0749 29.1903 53.5607 29.7068 53.9225 30.0667C54.2895 30.4267 54.858 30.9222 55.1836 31.1674C55.5092 31.4178 56.0932 31.809 56.4757 32.0438C56.8581 32.2733 57.4628 32.5968 57.8194 32.7585C58.176 32.9202 58.8014 33.1654 59.2149 33.301C59.6283 33.4418 60.233 33.614 60.5586 33.687C60.8842 33.76 61.4114 33.8592 61.7215 33.9061C62.1401 33.9739 62.6363 33.9948 63.6079 34C64.6209 34 65.0705 33.9791 65.546 33.9061C65.8871 33.8539 66.3781 33.7653 66.6314 33.7079C66.8898 33.6557 67.3653 33.5253 67.6909 33.4314C68.0165 33.3323 68.554 33.1445 68.8796 33.0141C69.2052 32.8784 69.7634 32.6176 70.12 32.4298C70.4766 32.2472 71.0554 31.8977 71.412 31.6578C71.7687 31.4178 72.239 31.0735 72.456 30.8909C72.6731 30.7084 73.009 30.4162 73.2054 30.2389L73.5569 29.9154L77.6657 33.9739C77.6399 18.992 77.6295 18.3086 77.5468 17.8078C77.4951 17.5053 77.3814 16.9523 77.2936 16.5819C77.2057 16.2063 77.0352 15.596 76.9059 15.2256C76.7819 14.85 76.4718 14.1197 76.2186 13.6085C75.9705 13.0921 75.5829 12.3983 75.3658 12.0696C75.1436 11.7358 74.7869 11.2454 74.575 10.9741C74.358 10.6977 73.9032 10.1917 73.5569 9.84736C73.2158 9.50307 72.7403 9.05966 72.4974 8.86665C72.2545 8.66842 71.7428 8.29805 71.3604 8.04244C70.9779 7.78682 70.3732 7.42688 70.0166 7.2443C69.66 7.06172 69.1328 6.81655 68.8434 6.69657C68.5488 6.5818 68.0526 6.40444 67.7322 6.30532C67.4118 6.21143 66.8691 6.07058 66.528 5.99755C66.1869 5.92451 65.5925 5.83061 65.2101 5.78367Z"
        fill="#5C2D91" />
    <path
        d="M64.4393 12.742C64.2244 12.7183 63.9019 12.7026 63.6136 12.7052C63.354 12.7078 63.0997 12.7131 63.0499 12.7184C63.0001 12.7236 62.8586 12.7394 62.7354 12.7552C62.6121 12.771 62.3946 12.8052 62.2504 12.8342C62.1062 12.8631 61.8414 12.9289 61.6605 12.9816C61.4796 13.0342 61.1808 13.1395 60.992 13.2132C60.8059 13.2896 60.5621 13.3975 60.4546 13.4528C60.3471 13.5054 60.1296 13.6291 59.9696 13.7239C59.8124 13.8186 59.545 13.9976 59.3798 14.124C59.2146 14.2503 58.9761 14.4504 58.8502 14.5662C58.7244 14.6847 58.5173 14.89 58.3941 15.0242C58.2683 15.1585 58.069 15.398 57.9511 15.5586C57.8305 15.7165 57.6496 15.9903 57.5421 16.164C57.4372 16.3377 57.2904 16.6089 57.217 16.7694C57.141 16.9274 57.0362 17.1774 56.9837 17.3222C56.9287 17.467 56.8448 17.7276 56.795 17.9013C56.7452 18.0751 56.677 18.3699 56.6429 18.5594C56.6088 18.7463 56.5643 19.0595 56.5485 19.2569C56.5276 19.4781 56.5223 19.7834 56.5302 20.073C56.5407 20.3257 56.5721 20.6968 56.6036 20.9021C56.6324 21.1048 56.698 21.4233 56.7452 21.6128C56.7924 21.7997 56.8867 22.1077 56.9549 22.2972C57.023 22.4841 57.162 22.8105 57.2642 23.0211C57.3691 23.2291 57.5657 23.5739 57.7046 23.7845C57.8462 23.9924 58.0533 24.2767 58.1687 24.4162C58.284 24.5531 58.5304 24.8137 58.7139 24.9953C58.9001 25.177 59.1884 25.427 59.3536 25.5507C59.5187 25.6771 59.815 25.8745 60.009 25.993C60.203 26.1088 60.5097 26.272 60.6906 26.3536C60.8715 26.4352 61.1887 26.5589 61.3984 26.6273C61.6081 26.6984 61.9148 26.7853 62.08 26.8221C62.2451 26.859 62.5125 26.909 62.6698 26.9327C62.8822 26.9669 63.1338 26.9774 63.6267 26.9801C64.1405 26.9801 64.3686 26.9695 64.6098 26.9327C64.7828 26.9064 65.0318 26.8616 65.1603 26.8327C65.2913 26.8063 65.5325 26.7405 65.6977 26.6932C65.8628 26.6431 66.1355 26.5484 66.3006 26.4826C66.4658 26.4141 66.7489 26.2825 66.9298 26.1878C67.1107 26.0956 67.4043 25.9193 67.5852 25.7982C67.7661 25.6771 68.0046 25.5034 68.1147 25.4112C68.2248 25.3191 68.3952 25.1717 68.4949 25.0822L68.6731 24.919L70.7572 26.9669C70.7441 19.407 70.7389 19.0622 70.6969 18.8095C70.6707 18.6568 70.613 18.3778 70.5685 18.1909C70.5239 18.0013 70.4374 17.6934 70.3719 17.5065C70.3089 17.317 70.1517 16.9484 70.0232 16.6905C69.8974 16.4299 69.7008 16.0798 69.5907 15.9139C69.4779 15.7455 69.297 15.498 69.1896 15.3612C69.0795 15.2217 68.8488 14.9663 68.6731 14.7926C68.5001 14.6189 68.2589 14.3951 68.1357 14.2977C68.0125 14.1977 67.753 14.0108 67.559 13.8818C67.365 13.7528 67.0583 13.5712 66.8774 13.4791C66.6965 13.387 66.4291 13.2632 66.2823 13.2027C66.1329 13.1448 65.8812 13.0553 65.7187 13.0053C65.5561 12.9579 65.2809 12.8868 65.1078 12.85C64.9348 12.8131 64.6333 12.7657 64.4393 12.742Z"
        fill="white" />
    <path
        d="M86.9035 0.142752H81.4767L81.4922 13.1946C81.5077 25.1822 81.5129 26.2985 81.5956 26.8411C81.6421 27.1593 81.761 27.7383 81.8592 28.1139C81.9574 28.4947 82.1228 29.0164 82.2261 29.2772C82.3295 29.538 82.5156 29.9345 82.6396 30.164C82.7636 30.3935 83.0065 30.7796 83.1874 31.0247C83.3631 31.2699 83.6733 31.6351 83.8748 31.8385C84.0764 32.042 84.4278 32.3445 84.6552 32.5167C84.8827 32.6888 85.3013 32.9497 85.5855 33.0957C85.8698 33.2418 86.3453 33.4452 86.645 33.5496C86.9448 33.6487 87.4203 33.7843 87.7045 33.8469C88.1904 33.9564 88.3661 33.9669 90.6918 33.9825L93.1571 33.9982V28.7816C89.5858 28.7451 89.131 28.7295 88.8416 28.6564C88.6452 28.6095 88.3402 28.5051 88.1697 28.4217C87.9991 28.3382 87.7459 28.1556 87.6063 28.02C87.472 27.8792 87.2911 27.6236 87.2136 27.4514C87.136 27.2793 87.0378 27.0236 87.0016 26.8776C86.95 26.6741 86.9345 25.0831 86.919 19.3292L86.9035 12.0365L93.1313 12.0104V6.79386L86.9035 6.76777V0.142752Z"
        fill="#5C2D91" />
    <path fill-rule="evenodd" clip-rule="evenodd"
        d="M109.579 6.13832V11.3549L109.103 11.381C108.84 11.3966 108.416 11.4331 108.158 11.4644C107.904 11.4957 107.439 11.5844 107.124 11.6679C106.814 11.7461 106.349 11.9026 106.09 12.0174C105.837 12.1269 105.429 12.346 105.186 12.5025C104.943 12.6642 104.576 12.9564 104.369 13.1546C104.157 13.3528 103.873 13.671 103.733 13.8588C103.594 14.0414 103.367 14.417 103.227 14.6935C103.087 14.9647 102.912 15.3612 102.839 15.5803C102.762 15.7942 102.638 16.2532 102.426 17.2235L102.369 33.9165L96.9681 33.9425V25.9456C96.9681 21.1568 96.9888 17.7086 97.0198 17.3539C97.0508 17.0201 97.1077 16.5036 97.1542 16.2063C97.1956 15.9037 97.3144 15.3142 97.4178 14.9021C97.516 14.4848 97.6917 13.8849 97.8054 13.5719C97.9191 13.2537 98.1362 12.7373 98.2861 12.4243C98.4308 12.1061 98.684 11.6366 98.8391 11.381C98.9993 11.1201 99.299 10.6872 99.5058 10.4159C99.7125 10.1394 100.116 9.68036 100.405 9.39345C100.689 9.10654 101.154 8.69444 101.439 8.48056C101.723 8.26146 102.188 7.94847 102.472 7.77632C102.757 7.60939 103.232 7.359 103.532 7.22858C103.832 7.09295 104.379 6.88429 104.746 6.76431C105.119 6.64433 105.697 6.49305 106.039 6.42523C106.38 6.3522 106.855 6.27395 107.098 6.24265C107.341 6.21136 107.62 6.18006 107.718 6.16963C107.816 6.15919 108.276 6.14876 109.579 6.13832ZM104.1 31.2821H106.323V31.7516H105.496L105.47 33.9165H104.953L104.927 31.7516H104.1V31.2821ZM106.736 31.2821H107.511L107.816 32.1533C107.982 32.6332 108.137 33.0297 108.158 33.0297C108.178 33.0297 108.333 32.6332 108.804 31.2821H109.574L109.553 33.9165H109.088L109.036 31.9863L108.783 32.7167C108.643 33.1183 108.493 33.5513 108.447 33.6817C108.364 33.906 108.354 33.9165 107.951 33.9165L107.63 33.0036C107.455 32.4976 107.305 32.075 107.3 32.0646C107.289 32.0489 107.274 32.461 107.227 33.9165H106.762L106.736 31.2821Z"
        fill="#5C2D91" />
</svg>